<svg id="Livello_1" data-name="Livello 1" xmlns="http://www.w3.org/2000/svg" viewBox="0 0 171.03 704.17"><defs><style>.cls-1{fill:#eeb76b;}</style></defs><title>ABOUT</title><path class="cls-1" d="M446.22,677.75l0-10.87L609.85,609l0,7-41.62,14.87.24,82.56L610.19,728l0,7Zm4.64-5.19,111.91,38.76-.22-78.68Z" transform="translate(-441.8 -31.54)"/><path class="cls-1" d="M610.71,735.71l-.67-.23L445.72,678.11l0-11.58,164.65-58.27,0,8-41.62,14.87L569,713l41.71,14.63Zm-164-58.31,163,56.9,0-5.93L568,713.73l-.24-83.26,41.63-14.87,0-5.93L446.69,667.24ZM563.28,712,449.36,672.57,563,631.94ZM452.37,672.56l109.9,38.07-.22-77.26Z" transform="translate(-441.8 -31.54)"/><path class="cls-1" d="M608.21,580.5l-161,.46A248,248,0,0,1,444,543.44q-.07-25.62,12.05-38.86,10.32-11.68,28.43-11.73a2.9,2.9,0,0,1,1.3.26q14,.22,21.76,6.41T522.38,522l.25-1.55Q531.34,487,566,486.94h1.29q43.48.65,44.16,56v1.81Q611.51,559,608.21,580.5Zm-155-6.55,67-.19-.09-32.61q-.05-18.63-9.92-30t-25.91-11.32q-33.38.1-34.56,43.84v4.14Q449.76,558.7,453.17,574Zm72.72-.21,76.6-.22q3.32-17.34,3.29-27.18v-4.14q-1.43-47.61-38.44-48.29h-1q-18.89.05-29.73,12.25T525.8,539.33Z" transform="translate(-441.8 -31.54)"/><path class="cls-1" d="M446.81,581.46l-.07-.42a249.66,249.66,0,0,1-3.22-37.59c0-17.13,4.05-30.32,12.19-39.2,6.94-7.85,16.63-11.86,28.8-11.89a3.76,3.76,0,0,1,1.41.26c9.34.16,16.73,2.35,22,6.51,5,4,9.78,11.07,14.29,21.14,5.87-22.4,20.62-33.77,43.85-33.83h1.29c29.18.44,44.2,19.46,44.66,56.53v1.82c0,9.46-1.07,21.5-3.27,35.8l-.06.42h-.43Zm37.71-88.1h0c-11.87,0-21.31,3.92-28.06,11.56-8,8.69-12,21.65-11.93,38.52a248,248,0,0,0,3.14,37L607.78,580c2.14-14.06,3.22-25.91,3.19-35.22V543c-.22-18.26-4-32.18-11.27-41.39s-18.13-13.93-32.39-14.14H566c-22.75.06-37.19,11.21-42.9,33.13l-.52,3.2-.68-1.57c-4.64-10.73-9.57-18.23-14.67-22.28s-12.29-6.15-21.45-6.3l-.21-.05A2.43,2.43,0,0,0,484.52,493.36Zm-31.75,81.09-.09-.39a125.64,125.64,0,0,1-3.45-26.23v-4.14c.79-29.36,12.58-44.28,35.05-44.34h.13c10.74,0,19.54,3.86,26.16,11.49s10,17.83,10,30.32l.09,33.11h-.5Zm31.63-74.11h-.13c-21.83.06-33.29,14.65-34.06,43.35v4.13a123.83,123.83,0,0,0,3.34,25.63l66.13-.19-.09-32.11c0-12.24-3.33-22.22-9.8-29.67S494.84,500.35,484.4,500.35Zm41,73.9-.1-34.92c0-14,3.63-25.3,10.9-33.49s17.42-12.38,30.1-12.42h1c24.89.45,38,16.86,38.94,48.77v4.16c0,6.58-1.09,15.75-3.3,27.28l-.08.41Zm41.93-79.83h-1c-12.39,0-22.26,4.1-29.35,12.08s-10.69,19-10.65,32.83l.1,33.92,75.69-.22c2.14-11.27,3.22-20.25,3.2-26.68v-4.14C604.33,510.94,591.57,494.86,567.32,494.42Z" transform="translate(-441.8 -31.54)"/><path class="cls-1" d="M442.3,391.28q-.1-33.64,29.36-52.36,23-14.82,54.82-14.91,37.53-.11,62.17,19.23,23.6,18.56,23.69,48.07.1,33.38-29.87,52.62-23.5,15.34-55.6,15.43-37,.11-60.87-19-23.35-18.3-23.69-48.59Zm84.29,61.1h.26q37.79-.11,60.25-19.32,19.36-16.61,19.55-41.72v-.26q-.08-28.73-25-45.48Q559.88,330.9,526.75,331h-.26q-38.56.11-60,18.8Q447.92,365.9,448,391.52v.26q.34,29.5,24.72,46.26Q494,452.47,526.58,452.37Z" transform="translate(-441.8 -31.54)"/><path class="cls-1" d="M526.46,459.86c-24.5,0-44.95-6.42-60.78-19.09-15.61-12.24-23.65-28.72-23.88-49v-.52c-.06-22.51,9.89-40.27,29.59-52.79,15.34-9.88,33.87-14.92,55.09-15h.41c24.84,0,45.72,6.51,62.07,19.34,15.79,12.42,23.82,28.72,23.88,48.46.06,22.34-10.06,40.19-30.1,53-15.67,10.23-34.46,15.45-55.87,15.51Zm.42-135.35h-.4c-21,.06-39.38,5-54.55,14.83-19.39,12.32-29.19,29.8-29.13,51.94v.52c.23,19.93,8.13,36.15,23.5,48.19,15.66,12.53,35.9,18.87,60.16,18.87h.4c21.2-.06,39.82-5.22,55.32-15.35,19.74-12.67,29.71-30.23,29.65-52.2-.05-19.42-8-35.46-23.5-47.68C572.17,330.94,551.49,324.51,526.88,324.51Zm-.71,128.37c-21.56,0-39.64-4.85-53.74-14.43-16.32-11.22-24.7-26.92-24.94-46.67v-.26c0-17.15,6.24-31.31,18.68-42.1,14.31-12.49,34.61-18.85,60.32-18.93h.67c21.9,0,40.33,4.94,54.77,14.68,16.66,11.22,25.14,26.66,25.19,45.89v.26c-.12,16.82-6.76,31-19.72,42.1-15,12.83-35.37,19.37-60.57,19.44h-.67Zm1-121.38h-.67c-25.46.07-45.53,6.36-59.66,18.68-12.22,10.59-18.39,24.5-18.34,41.34v.26c.23,19.4,8.47,34.83,24.5,45.85,13.93,9.46,31.82,14.25,53.18,14.25h.67c25-.07,45.11-6.53,59.92-19.2,12.73-10.93,19.25-24.84,19.38-41.35v-.25c-.05-18.88-8.38-34-24.75-45.07C567.11,336.37,548.87,331.49,527.17,331.49Z" transform="translate(-441.8 -31.54)"/><path class="cls-1" d="M444.85,288l.24-7L546,280.73q60.3-.17,60.16-48.57-.14-47.88-60.44-47.71l-100.93.29,0-7,98.34-.28q68.59-.2,68.74,54.67.16,55.38-68.68,55.58Z" transform="translate(-441.8 -31.54)"/><path class="cls-1" d="M444.33,288.51l.28-8L546,280.23c19.89-.06,35-4.13,44.88-12.12s14.83-20.05,14.79-35.95c0-15.72-5.09-27.66-15-35.48S565.85,185,546.17,185h-.42l-101.43.29,0-8,98.84-.28h.48c45.52,0,68.66,18.56,68.76,55.17.1,37.08-23.17,55.95-69.18,56.08Zm1.24-7-.21,6,97.83-.28c22.72-.06,40-4.74,51.28-13.88s17-23,16.91-41.2c-.05-18-5.8-31.74-17.07-40.71S566,178,543.62,178h-.48l-97.84.28,0,6L545.75,184h.43c40.07,0,60.42,16.22,60.51,48.21,0,16.22-5.05,28.57-15.16,36.73s-25.38,12.28-45.5,12.34Z" transform="translate(-441.8 -31.54)"/><path class="cls-1" d="M450.4,148.24l-5.69,0-.33-116.2,5.69,0,.16,56.68,158.13-.45,0,7-158.13.45Z" transform="translate(-441.8 -31.54)"/><path class="cls-1" d="M444.21,148.76l-.33-117.2,6.69,0,.16,56.68,158.13-.45,0,8-158.13.45.15,52.53Zm.67-116.2.33,115.2h4.69l-.15-52.53,158.13-.45,0-6-158.13.45-.16-56.68Z" transform="translate(-441.8 -31.54)"/></svg>