<svg id="Livello_1" data-name="Livello 1" xmlns="http://www.w3.org/2000/svg" viewBox="0 0 863.32 737.46"><defs><style>.cls-1{fill:#eeb76b;}</style></defs><title>cg</title><path class="cls-1" d="M361.12,256.8c20.47,0,50.75-93.09,50.75-158.43,0-35.33-9-62.52-32.81-62.52-17.67,0-43.75,15.14-80.76,53C266.06,121.93,164.56,224,116.61,353.54,99.78,399.24,88,443.83,88,482.8c0,26.35,5.33,50.19,18.23,70.1,10.94,17.1,26.92,24.39,46,24.39C259.33,577.3,466,343.44,471,336.15c3.09-3.37,5.89-4.77,8.13-4.77,3.37,0,5.33,2.81,5.33,6.73a10.59,10.59,0,0,1-.28,2.81c-.84.84-215.07,247-330.87,247-21.31,0-39.26-8.41-51.87-28-15.14-23.56-21.59-51.6-21.59-82.72,0-39.26,10.38-83,26.64-127.3,48.51-130.95,143-233,175.81-266.38,42.9-44,74.58-62,96.45-62C409.35,21.54,422,56,422,102.86c0,48.23-13.18,109.64-33.37,159.55-2,7.29-10.94,11.77-19.07,11.77-7,0-13.46-3.65-13.46-10.94a20.63,20.63,0,0,1,1.68-7.57A8,8,0,0,0,361.12,256.8Z" transform="translate(-79.88 -21.54)"/><path class="cls-1" d="M789.82,257.92a171.66,171.66,0,0,0-1.68-21.31c-23.27,18.79-49.63,41.22-76.55,64.49-73.19,63.65-151.14,130.67-193.2,130.67a37.69,37.69,0,0,1-5.61-.28c-12.34-1.68-19.91-9-23.84-20.47A80.78,80.78,0,0,1,485,385.79c0-95.34,138.52-254.88,232.74-254.88,36.45,0,66.18,23.83,79.07,83.84,27.2-19.91,53.84-33.36,70.66-33.36a20.65,20.65,0,0,1,10.66,2.52,24,24,0,0,1,4.77,4.49c2.52,3.65,3.65,8.69,3.65,15.14,0,43.46-50.19,142.44-65.9,175,38.7-26.07,78-44.3,115.81-49.07H937a6,6,0,0,1,6.17,5.89c0,2.81-1.68,5.33-5.33,6.17-41.78,5.33-88.33,32.81-130.95,64.77C779.72,460.65,628,759,552.32,759a22.32,22.32,0,0,1-4.49-.29c-9.81-2-13.46-9-13.46-18.78,0-29.16,32.81-82.44,39.54-93.93C621.57,566.93,714.39,455.89,803,388.59c15.14-29.72,64.21-144.4,64.21-180.58,0-3.93-.56-6.73-2-8.69a2.17,2.17,0,0,0-1.12-1.12,12.61,12.61,0,0,0-6.73-1.68c-12.06,0-31.69,11.21-58,31.41a179.22,179.22,0,0,1,2.53,29.16c0,15.14-2.53,21.59-2.53,21.87v.28c0,2.81-2.8,4.21-5.89,4.21s-6.45-1.68-6.45-4.77v-.84C787,277.55,789.82,272.5,789.82,257.92ZM721.68,150c-85.8,0-220.12,167.12-220.12,241.71a48.59,48.59,0,0,0,2.25,14.86c2.24,6.73,3.65,11.78,10.66,12.9a21.24,21.24,0,0,0,4.2.28c37,0,113-65.61,184.78-127.86,28.88-25,57.2-49.35,82.44-68.7C775.79,170.72,751.68,150,721.68,150ZM591,651.88c-3.08,5.33-42.34,75.71-42.34,91.69,0,1.68.28,2.81,1.4,3.09a11.78,11.78,0,0,0,6.17,1.4c53.28,0,210.3-277.59,231.33-328.63C708.22,485.6,634.48,580.1,591,651.88Z" transform="translate(-79.88 -21.54)"/></svg>