<svg id="Livello_1" data-name="Livello 1" xmlns="http://www.w3.org/2000/svg" viewBox="0 0 202.95 722.73"><defs><style>.cls-1{fill:#eeb76b;stroke:#eeb76b;stroke-miterlimit:10;}</style></defs><title>SKILLS</title><path class="cls-1" d="M290.88,23.72l5.76,3.6Q283.2,57,283.3,75.45v.61q.12,21.76,10.77,34.85t30,14.8a50.44,50.44,0,0,0,5.44.27q17.23-.09,28.2-11.64t19.59-38.2q8.62-27,17.62-38.79,12.61-15.79,32.25-15.89,20-.11,32.73,15.39t12.92,40q.13,23.87-13,47.23l-6.37-4.5q10.46-22.12,10.36-40.26V77.18q-.42-21.76-10.32-34.71T427.54,29.62H426a30,30,0,0,0-22.46,11.31q-8.86,10.62-16.88,35.76Q376.58,107.89,364,121t-32.88,13.18q-3,0-6.35-.27-23-1.69-36.52-16.58t-14-39.37V75.81Q274.1,50.72,290.88,23.72Z" transform="translate(-273.73 -20.96)"/><path class="cls-1" d="M278.4,174.32l191.33-1.05,0,8.16-89.17.49,89.61,79.61.06,10.58L379.15,190.7,278.92,267.42l-.05-9.67,99-75.81-99.45.55Z" transform="translate(-273.73 -20.96)"/><path class="cls-1" d="M470.54,319.27l-191.33,1.05,0-8.16,191.33-1.05Z" transform="translate(-273.73 -20.96)"/><path class="cls-1" d="M279.5,374.72l191.33-1.05,0,8.16-184.68,1,.44,80.1L280,463Z" transform="translate(-273.73 -20.96)"/><path class="cls-1" d="M280.25,509.83l191.33-1.05,0,8.16-184.68,1,.44,80.1-6.65,0Z" transform="translate(-273.73 -20.96)"/><path class="cls-1" d="M294.22,632.78l5.76,3.6q-13.44,29.69-13.34,48.13v.61q.12,21.76,10.77,34.85t30,14.8a50.44,50.44,0,0,0,5.44.27q17.23-.09,28.2-11.64t19.59-38.2q8.62-27,17.62-38.79,12.61-15.79,32.25-15.89,20-.11,32.73,15.39t12.92,40q.13,23.87-13,47.23l-6.37-4.5q10.46-22.12,10.36-40.26v-2.12q-.42-21.76-10.32-34.71t-25.92-12.86h-1.51A30,30,0,0,0,406.91,650q-8.86,10.62-16.88,35.76Q379.93,716.94,367.3,730t-32.88,13.18q-3,0-6.35-.27-23-1.69-36.52-16.58t-14-39.37v-2.12Q277.44,659.77,294.22,632.78Z" transform="translate(-273.73 -20.96)"/></svg>