<svg id="Livello_1" data-name="Livello 1" xmlns="http://www.w3.org/2000/svg" viewBox="0 0 813.5 552.5"><defs><style>.cls-1,.cls-2,.cls-3{fill:#eeb76b;}.cls-2,.cls-3,.cls-5{stroke:#eeb76b;stroke-miterlimit:10;}.cls-2{stroke-width:2px;}.cls-3{stroke-width:3px;}.cls-4,.cls-5{fill:none;}.cls-5{stroke-width:1.5px;}</style></defs><title>circles_graphic</title><path class="cls-1" d="M839.84,188.16A276.25,276.25,0,1,0,920.75,383.5,274.44,274.44,0,0,0,839.84,188.16ZM644.5,655.25c-149.84,0-271.75-121.91-271.75-271.75S494.66,111.75,644.5,111.75,916.25,233.66,916.25,383.5,794.34,655.25,644.5,655.25Z" transform="translate(-107.25 -107.25)"/><path class="cls-1" d="M578.84,188.16A276.25,276.25,0,1,0,659.75,383.5,274.44,274.44,0,0,0,578.84,188.16ZM383.5,655.25c-149.84,0-271.75-121.91-271.75-271.75S233.66,111.75,383.5,111.75,655.25,233.66,655.25,383.5,533.34,655.25,383.5,655.25Z" transform="translate(-107.25 -107.25)"/><polygon class="cls-2" points="353.03 175.25 344.48 205.3 333.63 175.25 332.18 175.25 343.83 206.9 345.18 206.9 353.88 176.75 362.58 206.9 364.03 206.9 375.53 175.25 374.08 175.25 363.38 205.35 354.63 175.25 353.03 175.25"/><polygon class="cls-2" points="381.13 175.25 381.13 206.9 382.48 206.9 382.48 190.95 401.03 190.95 401.03 206.9 402.38 206.9 402.38 175.25 401.03 175.25 401.03 189.85 382.48 189.85 382.48 175.25 381.13 175.25"/><polygon class="cls-2" points="428.73 176.35 428.73 175.25 411.58 175.25 411.58 206.9 429.38 206.9 429.38 205.8 412.93 205.8 412.93 190.95 426.28 190.95 426.28 189.85 412.93 189.85 412.93 176.35 428.73 176.35"/><path class="cls-2" d="M560.23,296.75a8.4,8.4,0,0,0,1.75-5.4,9.14,9.14,0,0,0-2.35-6.6q-2.7-2.85-8-2.85a53.8,53.8,0,0,0-6.7.6v31.65h1.35V299.7a17.92,17.92,0,0,0,4.3.6,17,17,0,0,0,3.45-.35l6.45,14.2H562l-6.6-14.5A8.3,8.3,0,0,0,560.23,296.75Zm-9.55,2.45a17.34,17.34,0,0,1-4.4-.65v-15a28.66,28.66,0,0,1,5.1-.5q9.25,0,9.25,8.4Q560.63,299.2,550.68,299.2Z" transform="translate(-107.25 -107.25)"/><polygon class="cls-2" points="480.18 176.35 480.18 175.25 463.03 175.25 463.03 206.9 480.83 206.9 480.83 205.8 464.38 205.8 464.38 190.95 477.73 190.95 477.73 189.85 464.38 189.85 464.38 176.35 480.18 176.35"/><polygon class="cls-2" points="342.61 368.9 342.61 337.25 341.26 337.25 341.26 351.85 322.71 351.85 322.71 337.25 321.36 337.25 321.36 368.9 322.71 368.9 322.71 352.95 341.26 352.95 341.26 368.9 342.61 368.9"/><path class="cls-2" d="M475.56,468.1l2.85,8h1.35l-11.1-31.65h-2.1l-11.15,31.65h1.35l2.85-8Zm-8-22.7,7.65,21.6H460Z" transform="translate(-107.25 -107.25)"/><path class="cls-2" d="M491.46,462.3h.15a11.94,11.94,0,0,0,7.35-2.1,8.17,8.17,0,0,0,3.35-6.85,2.17,2.17,0,0,0,.05-.4,8.52,8.52,0,0,0-2.4-6.3q-2.75-2.75-7.85-2.75a47.49,47.49,0,0,0-6.85.7v31.55h1.35V461.6A22.57,22.57,0,0,0,491.46,462.3Zm-4.85-16.65a21.77,21.77,0,0,1,4.95-.65h.15q9.3,0,9.3,7.95a3.1,3.1,0,0,1,0,.45q-.2,7.8-9.85,7.8H491a18.72,18.72,0,0,1-4.4-.7Z" transform="translate(-107.25 -107.25)"/><path class="cls-2" d="M515.91,462.3h.15a11.94,11.94,0,0,0,7.35-2.1,8.17,8.17,0,0,0,3.35-6.85,2.16,2.16,0,0,0,0-.4,8.52,8.52,0,0,0-2.4-6.3q-2.75-2.75-7.85-2.75a47.49,47.49,0,0,0-6.85.7v31.55h1.35V461.6A22.58,22.58,0,0,0,515.91,462.3Zm-4.85-16.65a21.78,21.78,0,0,1,5-.65h.15q9.3,0,9.3,7.95a3.17,3.17,0,0,1,0,.45q-.2,7.8-9.85,7.8h-.1a18.73,18.73,0,0,1-4.4-.7Z" transform="translate(-107.25 -107.25)"/><polygon class="cls-2" points="444.26 338.35 444.26 337.25 427.11 337.25 427.11 368.9 444.91 368.9 444.91 367.8 428.46 367.8 428.46 352.95 441.81 352.95 441.81 351.85 428.46 351.85 428.46 338.35 444.26 338.35"/><path class="cls-2" d="M578.11,476.15h1.3V444.5h-1.35v29.25q-6.7-12.2-16.3-29.25h-1.3v31.65h1.35v-29Q571.71,464.85,578.11,476.15Z" transform="translate(-107.25 -107.25)"/><path class="cls-2" d="M589.66,447.07a9.55,9.55,0,0,1,5.75-1.67h.35a15.58,15.58,0,0,1,6.65,1.75l.75-1a15.57,15.57,0,0,0-7.8-2.2,10.14,10.14,0,0,0-6.62,2.1,6.65,6.65,0,0,0-2.58,5.4,6.58,6.58,0,0,0,2.6,5.35,22.32,22.32,0,0,0,6.4,2.95,16.81,16.81,0,0,1,6.3,3.28,6.2,6.2,0,0,1,1.9,4.67,8.4,8.4,0,0,1,0,.9,6.87,6.87,0,0,1-2.48,5,8.94,8.94,0,0,1-5.77,1.75H595a20.33,20.33,0,0,1-8-2.25l-.6.95a16.17,16.17,0,0,0,8.6,2.8h.35a9.58,9.58,0,0,0,6.52-2.28,8.67,8.67,0,0,0,2.78-6c0-.37,0-.72,0-1a7.28,7.28,0,0,0-2.15-5.45q-2.15-2.1-7.3-3.8a18.24,18.24,0,0,1-5.9-2.83,5,5,0,0,1-1.85-3.72v-.25A5.11,5.11,0,0,1,589.66,447.07Z" transform="translate(-107.25 -107.25)"/><path class="cls-3" d="M134.45,393.67V368.43a38,38,0,0,1,5.48-.56,8.5,8.5,0,0,1,6.28,2.2,6.81,6.81,0,0,1,1.92,5,1.78,1.78,0,0,1,0,.32,6.54,6.54,0,0,1-2.68,5.48,9.56,9.56,0,0,1-5.88,1.68h-.12a18.08,18.08,0,0,1-3.88-.56v11.64Zm1.08-24.4v11.88a15,15,0,0,0,3.52.56h.08q7.72,0,7.88-6.24a2.51,2.51,0,0,0,0-.36q0-6.32-7.44-6.36h-.12A17.41,17.41,0,0,0,135.53,369.27Z" transform="translate(-107.25 -107.25)"/><path class="cls-3" d="M163.93,376.23l-.8.8a5.57,5.57,0,0,0-3-1.12h0a4.83,4.83,0,0,0-2.6.72,15.12,15.12,0,0,0-2.92,2.68v14.36h-1.08V375.51h.8l.28,2.36a13,13,0,0,1,2.84-2.24,5.84,5.84,0,0,1,2.72-.6h.08A7.27,7.27,0,0,1,163.93,376.23Z" transform="translate(-107.25 -107.25)"/><path class="cls-3" d="M183.93,384.63a9.8,9.8,0,0,1-2.56,7,7.78,7.78,0,0,1-6,2.52,7.69,7.69,0,0,1-6.56-3.2,10.2,10.2,0,0,1-2-6.32,10,10,0,0,1,2.6-7.12,8.26,8.26,0,0,1,12.4.68A10.19,10.19,0,0,1,183.93,384.63Zm-16,0a8.87,8.87,0,0,0,2.44,6.44,6.68,6.68,0,0,0,5,2.2,6.79,6.79,0,0,0,5.56-2.8,9.29,9.29,0,0,0,1.88-5.84,9,9,0,0,0-2.48-6.56,6.93,6.93,0,0,0-10.56.6A9.47,9.47,0,0,0,167.93,384.63Z" transform="translate(-107.25 -107.25)"/><path class="cls-3" d="M202.29,377.35l.32-1.84h.8v17.2q0,8.6-7.44,8.6a10.15,10.15,0,0,1-6.12-2.28l.64-.8a8.53,8.53,0,0,0,5.52,2.2q6.32,0,6.32-7.72V392a9.17,9.17,0,0,1-5.8,2.16,7.3,7.3,0,0,1-6.16-3,10.37,10.37,0,0,1-2-6.52,9.73,9.73,0,0,1,2.68-7.2,7.85,7.85,0,0,1,5.84-2.36,6.93,6.93,0,0,1,2.7.48A10.79,10.79,0,0,1,202.29,377.35Zm0,13.36v-12a7.6,7.6,0,0,0-5.64-2.84,6.47,6.47,0,0,0-5.48,2.76,9.87,9.87,0,0,0-1.76,6,8.93,8.93,0,0,0,2.28,6.48,6.63,6.63,0,0,0,5,2.12A7.49,7.49,0,0,0,202.33,390.71Z" transform="translate(-107.25 -107.25)"/><path class="cls-3" d="M220,376.23l-.8.8a5.57,5.57,0,0,0-3-1.12h0a4.83,4.83,0,0,0-2.6.72,15.12,15.12,0,0,0-2.92,2.68v14.36h-1.08V375.51h.8l.28,2.36a13,13,0,0,1,2.84-2.24,5.84,5.84,0,0,1,2.72-.6h.08A7.27,7.27,0,0,1,220,376.23Z" transform="translate(-107.25 -107.25)"/><path class="cls-3" d="M236.49,393.67h-.84l-.16-2.28a9.46,9.46,0,0,1-6.52,2.76,6.16,6.16,0,0,1-4.32-1.46,5.07,5.07,0,0,1-1.6-3.94q0-6.16,8.2-6.16h4.16v-.44q0-6.2-5.44-6.2a8.44,8.44,0,0,0-5.2,2.08l-.56-.72a9.42,9.42,0,0,1,5.8-2.24q6.48,0,6.48,7.32Zm-1.08-10.2h-4a9,9,0,0,0-5.6,1.48,4.83,4.83,0,0,0-.28,7.06,5.41,5.41,0,0,0,3.76,1.26,8.28,8.28,0,0,0,6.12-3Z" transform="translate(-107.25 -107.25)"/><path class="cls-3" d="M268.13,393.67H267v-11a7.42,7.42,0,0,0-1.5-5,5.4,5.4,0,0,0-4.26-1.8h-.2a9.78,9.78,0,0,0-5.6,2.32,12.49,12.49,0,0,1,.8,4.52v10.92h-1.08V382.79q0-6.76-5.16-6.88h-.2a5.76,5.76,0,0,0-2.78.68,14.13,14.13,0,0,0-3,2.44v14.64H243V375.51h.8l.28,2.08a15.38,15.38,0,0,1,3.12-2.06,7,7,0,0,1,2.76-.5h0a6.69,6.69,0,0,1,2.74.48,7.73,7.73,0,0,1,2.3,1.8,11.48,11.48,0,0,1,6.12-2.28h.12q6.88.08,6.88,7.76Z" transform="translate(-107.25 -107.25)"/><path class="cls-3" d="M299.32,393.67h-1.08v-11a7.42,7.42,0,0,0-1.5-5,5.4,5.4,0,0,0-4.26-1.8h-.2a9.78,9.78,0,0,0-5.6,2.32,12.49,12.49,0,0,1,.8,4.52v10.92H286.4V382.79q0-6.76-5.16-6.88H281a5.76,5.76,0,0,0-2.78.68,14.13,14.13,0,0,0-3,2.44v14.64h-1.08V375.51h.8l.28,2.08a15.38,15.38,0,0,1,3.12-2.06,7,7,0,0,1,2.76-.5h0a6.69,6.69,0,0,1,2.74.48,7.73,7.73,0,0,1,2.3,1.8,11.48,11.48,0,0,1,6.12-2.28h.12q6.88.08,6.88,7.76Z" transform="translate(-107.25 -107.25)"/><path class="cls-3" d="M305.21,369a1,1,0,0,1,1.12-1.12q1.08,0,1.08,1.12a1,1,0,0,1-1.08,1.08Q305.2,370.07,305.21,369Zm1.56,6.52v18.16h-1.08V375.51Z" transform="translate(-107.25 -107.25)"/><path class="cls-3" d="M327.76,393.67h-1.08V382.95q0-7-6-7a6.51,6.51,0,0,0-3.16.74,11.17,11.17,0,0,0-3,2.62v14.4h-1.08V375.51h.8l.28,2.32a9.05,9.05,0,0,1,6.28-2.8q6.92,0,6.92,7.72Z" transform="translate(-107.25 -107.25)"/><path class="cls-3" d="M347.12,377.35l.32-1.84h.8v17.2q0,8.6-7.44,8.6a10.15,10.15,0,0,1-6.12-2.28l.64-.8a8.53,8.53,0,0,0,5.52,2.2q6.32,0,6.32-7.72V392a9.17,9.17,0,0,1-5.8,2.16,7.3,7.3,0,0,1-6.16-3,10.37,10.37,0,0,1-2-6.52,9.73,9.73,0,0,1,2.68-7.2,7.85,7.85,0,0,1,5.84-2.36,6.93,6.93,0,0,1,2.7.48A10.79,10.79,0,0,1,347.12,377.35Zm0,13.36v-12a7.6,7.6,0,0,0-5.64-2.84,6.47,6.47,0,0,0-5.48,2.76,9.87,9.87,0,0,0-1.76,6,8.93,8.93,0,0,0,2.28,6.48,6.63,6.63,0,0,0,5,2.12A7.49,7.49,0,0,0,347.16,390.71Z" transform="translate(-107.25 -107.25)"/><path class="cls-3" d="M724.73,369.91l-.48.8a11.15,11.15,0,0,0-5.6-2h-.4a8.53,8.53,0,0,0-7.08,3.88,14.36,14.36,0,0,0-2.24,8.28v.16q0,5.92,3.08,9.32a8.64,8.64,0,0,0,6.56,2.88h.08a10.31,10.31,0,0,0,5.84-2.2l.56.76a10.6,10.6,0,0,1-6.56,2.32h0a9.47,9.47,0,0,1-8-4,14.7,14.7,0,0,1-2.56-8.88q0-6.32,3.28-10.08a9.15,9.15,0,0,1,7.12-3.32h.2A11.12,11.12,0,0,1,724.73,369.91Z" transform="translate(-107.25 -107.25)"/><path class="cls-3" d="M740.61,376.23l-.8.8a5.56,5.56,0,0,0-3-1.12h0a4.83,4.83,0,0,0-2.6.72,15.13,15.13,0,0,0-2.92,2.68v14.36h-1.08V375.51h.8l.28,2.36a13,13,0,0,1,2.84-2.24,5.84,5.84,0,0,1,2.72-.6h.08A7.27,7.27,0,0,1,740.61,376.23Z" transform="translate(-107.25 -107.25)"/><path class="cls-3" d="M758,385h-13.4a11.87,11.87,0,0,0,.48,3q1.64,5.2,7.44,5.2a8.55,8.55,0,0,0,5-1.64l.52.76a9.68,9.68,0,0,1-5.68,1.76,8.31,8.31,0,0,1-6.76-2.88,9.72,9.72,0,0,1-2.12-6.48,10.68,10.68,0,0,1,2.4-7.2A6.44,6.44,0,0,1,751,375a6.07,6.07,0,0,1,5.36,2.92,12.43,12.43,0,0,1,1.64,6.72Zm-13.32-.88h12.24a11.32,11.32,0,0,0-1.64-6,4.88,4.88,0,0,0-4.32-2.2,5.19,5.19,0,0,0-4.2,2.08A10.83,10.83,0,0,0,744.69,384.11Z" transform="translate(-107.25 -107.25)"/><path class="cls-3" d="M775.37,393.67h-.84l-.16-2.28a9.46,9.46,0,0,1-6.52,2.76,6.16,6.16,0,0,1-4.32-1.46,5.07,5.07,0,0,1-1.6-3.94q0-6.16,8.2-6.16h4.16v-.44q0-6.2-5.44-6.2a8.44,8.44,0,0,0-5.2,2.08l-.56-.72a9.42,9.42,0,0,1,5.8-2.24q6.48,0,6.48,7.32Zm-1.08-10.2h-4a9,9,0,0,0-5.6,1.48,4.83,4.83,0,0,0-.28,7.06,5.4,5.4,0,0,0,3.76,1.26,8.28,8.28,0,0,0,6.12-3Z" transform="translate(-107.25 -107.25)"/><path class="cls-3" d="M784.37,376.43v13q0,3.8,3.08,3.8a4.72,4.72,0,0,0,2.24-.6l.4.72a6,6,0,0,1-2.8.76q-4,0-4-4.8V376.43h-2.88v-.88h2.88v-4.4l1.08-.48v4.88h5.8v.88Z" transform="translate(-107.25 -107.25)"/><path class="cls-3" d="M794.72,369a1,1,0,0,1,1.12-1.12,1,1,0,0,1,1.08,1.12,1,1,0,0,1-1.08,1.08Q794.72,370.07,794.72,369Zm1.56,6.52v18.16h-1.08V375.51Z" transform="translate(-107.25 -107.25)"/><path class="cls-3" d="M808.84,393.67h-1.56l-6.72-18.16h1l6.48,17.44,6.32-17.44h1.08Z" transform="translate(-107.25 -107.25)"/><path class="cls-3" d="M819.13,369a1,1,0,0,1,1.12-1.12q1.08,0,1.08,1.12a1,1,0,0,1-1.08,1.08Q819.13,370.07,819.13,369Zm1.56,6.52v18.16H819.6V375.51Z" transform="translate(-107.25 -107.25)"/><path class="cls-3" d="M829.92,376.43v13q0,3.8,3.08,3.8a4.72,4.72,0,0,0,2.24-.6l.4.72a6,6,0,0,1-2.8.76q-4,0-4-4.8V376.43H826v-.88h2.88v-4.4l1.08-.48v4.88h5.8v.88Z" transform="translate(-107.25 -107.25)"/><path class="cls-3" d="M853.76,375.51l-8,21a10.57,10.57,0,0,1-2.1,3.68,3.8,3.8,0,0,1-2.78,1.08,7.27,7.27,0,0,1-3-.72l.52-.84a4.22,4.22,0,0,0,2.36.68,3,3,0,0,0,2.48-1.24,18.19,18.19,0,0,0,2.16-4.64l.32-.88h-.44L838,375.51h1.2l6.92,17.64,6.56-17.64Z" transform="translate(-107.25 -107.25)"/><path class="cls-4" d="M426,357H375v38h47.54c-.09-5.23,1.47-10.91,3.46-16.06Z" transform="translate(-107.25 -107.25)"/><path class="cls-4" d="M426,378.94c-2,5.15-3.54,10.83-3.46,16.06H426Z" transform="translate(-107.25 -107.25)"/><rect class="cls-4" x="481.75" y="287.75" width="31" height="76"/><path class="cls-5" d="M447.28,359.38c.22,0,.46.5.46,1v.12c-.18,2.71-.08,4.32-.3,6,2.93-5.21,5.57-8.46,9.21-10.35a6.62,6.62,0,0,1,2.87-.88c1.81,0,2.53,1.55,2.53,3.94,0,4.74-2.79,12.72-5.41,18.33,3.14-4.7,7.94-11,11.4-11.28h.1c1.53,0,2.09,1.37,2.09,3.46,0,5.08-3.2,14.29-3.2,18.13a2.64,2.64,0,0,0,.28,1.41.44.44,0,0,1,.08.26.58.58,0,0,1-.56.52.32.32,0,0,1-.32-.28,3.1,3.1,0,0,1-.3-1.59c0-4.18,3.1-13.87,3.1-18.45,0-1.51-.34-2.47-1.25-2.47h-.12c-4.7.48-13,15.82-13.67,15.82a.3.3,0,0,1-.32.24.55.55,0,0,1-.5-.56v-.1c0-.08,7.76-17.53,7.76-24.24,0-1.59-.44-2.59-1.51-2.59a3.94,3.94,0,0,0-1.83.62c-4,2-7.38,7-10.43,12.94-1.05,7.54-4,17.73-6.43,20.52a1.74,1.74,0,0,1-1.09.72h-.06c-.6,0-.86-.56-.86-1.49,0-4.82,6.81-19.82,7.56-21.27.46-3.3.14-5.53.46-8.12C447.08,359.5,447.16,359.38,447.28,359.38Zm-.76,11.76c-.14.28-6.53,15.9-6.53,18.55,0,.24,0,.38.16.38s.32-.14.6-.46C442.94,386.53,445.37,378,446.52,371.14Z" transform="translate(-107.25 -107.25)"/><path class="cls-5" d="M501,389.31c1.83-5.43,3.16-10.29,4.18-14.07-5.23.46-10.83,1.61-16.06,2.11-1.81,2.93-3.56,5.91-5.23,8.9-.2,1-.46,1.93-.74,2.87-1.19,4-1.81,6.73-3.08,7.66a1.15,1.15,0,0,1-.66.28c-.3,0-.5-.28-.5-.9,0-1.39,1.07-4.56,4.3-10a20.88,20.88,0,0,0,1-5.33,6,6,0,0,0-.64-2.85c-2.63.22-5.13.32-7.18.32-3,0-5-.24-5.17-.74a.47.47,0,0,1-.06-.24c0-1.07,3.8-2.95,7.3-2.95,2,0,3.88.6,4.92,2.27l5.71-.52c4.36-7,9.08-13.73,12-16.18a2,2,0,0,1,.32-.26,10,10,0,0,1,4.1-2.17,2.94,2.94,0,0,1,.58-.06c2.11,0,2.79,2.21,2.79,5,0,4.46-1.67,10.47-2.09,12.1h.66c1,0,1.65.08,1.71.28v0c0,.36-.84.76-2.79,1.23-1.13,4.08-2.69,9-4.74,14.79,0,.4-.42.6-.84.6s-1.08-.28-1.08-.76v-.06C499.92,390,500.83,389.91,501,389.31ZM478.86,375a15.48,15.48,0,0,0-6.63,1.83c.06.2.86.3,2.19.3,1.89,0,4.88-.18,8.4-.48A4.76,4.76,0,0,0,478.86,375Zm.56,20.8c0,.08,0,.1,0,.1.3,0,1.71-2.55,3-7l0-.14C480.23,393.07,479.42,395.3,479.42,395.8Zm4.7-17.91a6.6,6.6,0,0,1,.6,2.81,28,28,0,0,1-.42,3.5c1.27-2.29,2.61-4.54,4-6.77A31.42,31.42,0,0,0,484.11,377.89Zm23.78-16.12c0-2.13-.5-3.64-1.91-3.64a2.8,2.8,0,0,0-.38,0,9.52,9.52,0,0,0-3.8,2c-.08.08-.16.14-.28.24-2.77,2.35-7.28,8.76-11.54,15.56,5.09-.5,10.31-1.13,15.4-1.37C505.77,373.15,507.9,366.17,507.9,361.77Zm.54,13.21h-.06c-.18,0-.82,0-1.77.12l-.06.22A17.77,17.77,0,0,0,508.43,375Z" transform="translate(-107.25 -107.25)"/><path class="cls-5" d="M532.61,372.14a12.25,12.25,0,0,0-.12-1.51c-1.65,1.33-3.52,2.93-5.43,4.58-5.19,4.52-10.73,9.27-13.71,9.27a2.61,2.61,0,0,1-.4,0,2,2,0,0,1-1.69-1.45,5.72,5.72,0,0,1-.28-1.79c0-6.77,9.83-18.09,16.52-18.09,2.59,0,4.7,1.69,5.61,6,1.93-1.41,3.82-2.37,5-2.37a1.46,1.46,0,0,1,.76.18,1.67,1.67,0,0,1,.34.32,1.87,1.87,0,0,1,.26,1.07c0,3.08-3.56,10.11-4.68,12.42a19.6,19.6,0,0,1,8.22-3.48h0a.42.42,0,0,1,.44.42.44.44,0,0,1-.38.44c-3,.38-6.27,2.33-9.29,4.6-1.93,3.86-12.7,25-18.07,25a1.64,1.64,0,0,1-.32,0,1.17,1.17,0,0,1-1-1.33c0-2.07,2.33-5.85,2.81-6.67a73.53,73.53,0,0,1,16.26-18.27c1.07-2.11,4.56-10.25,4.56-12.82A1.05,1.05,0,0,0,538,368a.16.16,0,0,0-.08-.08.89.89,0,0,0-.48-.12c-.86,0-2.25.8-4.12,2.23a12.75,12.75,0,0,1,.18,2.07,5.06,5.06,0,0,1-.18,1.55v0c0,.2-.2.3-.42.3s-.46-.12-.46-.34v-.06A3.52,3.52,0,0,0,532.61,372.14Zm-4.84-7.66c-6.09,0-15.62,11.86-15.62,17.15a3.45,3.45,0,0,0,.16,1.05c.16.48.26.84.76.92a1.48,1.48,0,0,0,.3,0c2.63,0,8-4.66,13.11-9.08,2-1.77,4.06-3.5,5.85-4.88C531.62,365.95,529.91,364.48,527.78,364.48ZM518.5,400.1c-.22.38-3,5.37-3,6.51,0,.12,0,.2.1.22a.84.84,0,0,0,.44.1c3.78,0,14.93-19.7,16.42-23.32A71,71,0,0,0,518.5,400.1Z" transform="translate(-107.25 -107.25)"/><path class="cls-5" d="M548.83,393.75l4.36,0c.48,0,1.31-.28,2.07-.36a.48.48,0,0,1,.46.5.78.78,0,0,1-.86.72h0l-6.95-.06a5.85,5.85,0,0,1-2.55.52,8.13,8.13,0,0,1-2.27-.3.56.56,0,0,1-.36-.52c0-.26.16-.48.56-.52l4.4,0c1.81-.91,11.06-29,12.46-32.94a31.88,31.88,0,0,0-5.57.74c-.28,0-.44-.34-.44-.64s.1-.44.28-.48c0,0,3-.14,6-.24l0-.08.2.06c1.71,0,3.42-.08,4.66-.08a13.56,13.56,0,0,1,1.65.06.6.6,0,0,1,.2.1.4.4,0,0,1,.16.24v.1a.41.41,0,0,1-.08.26.57.57,0,0,1-.16.14,4.51,4.51,0,0,1-1.81.3,8.9,8.9,0,0,1-1-.06l0-.12h-.1c-.92,0-1.93-.24-3-.24h-.22C559.42,365.15,550.28,392.24,548.83,393.75Z" transform="translate(-107.25 -107.25)"/><path class="cls-5" d="M580.24,372.06c1.45,0,3.6-6.61,3.6-11.24,0-2.51-.64-4.44-2.33-4.44-1.25,0-3.1,1.07-5.73,3.76-2.29,2.35-9.49,9.59-12.9,18.79a27.8,27.8,0,0,0-2,9.17,9,9,0,0,0,1.29,5,3.64,3.64,0,0,0,3.26,1.73c7.6,0,22.27-16.6,22.63-17.11a.85.85,0,0,1,.58-.34c.24,0,.38.2.38.48a.71.71,0,0,1,0,.2c-.06.06-15.26,17.53-23.48,17.53a4.13,4.13,0,0,1-3.68-2,10.65,10.65,0,0,1-1.53-5.87,27,27,0,0,1,1.89-9c3.44-9.29,10.15-16.54,12.48-18.91,3-3.12,5.29-4.4,6.85-4.4,2.17,0,3.06,2.45,3.06,5.77a32.58,32.58,0,0,1-2.37,11.32,1.38,1.38,0,0,1-1.35.84c-.5,0-1-.26-1-.78A1.46,1.46,0,0,1,580,372,.58.58,0,0,0,580.24,372.06Z" transform="translate(-107.25 -107.25)"/></svg>